<svg version="1.2" preserveAspectRatio="xMidYMid meet" viewBox="6.352264011379801 614.445905407688 1431.8065433854906 399.55498791" zoomAndPan="magnify" xmlns:xlink="http://www.w3.org/1999/xlink" xmlns="http://www.w3.org/2000/svg" style="max-height: 500px" width="1431.8065433854906" height="399.55498791"><defs><clipPath id="0a41eb0854"><path d="M 0.351562 609 L 1439.648438 609 L 1439.648438 906 L 0.351562 906 Z M 0.351562 609"/></clipPath><clipPath id="ce56d594e1"><path d="M 0.351562 730.390625 L 68.199219 730.390625 L 68.199219 1024 L 0.351562 1024 Z M 0.351562 730.390625"/></clipPath><clipPath id="d184a27703"><path d="M 67.449219 778.820312 L 325.140625 778.820312 L 325.140625 1024 L 67.449219 1024 Z M 67.449219 778.820312"/></clipPath><clipPath id="c803ebec99"><path d="M 324.390625 823.414062 L 582.082031 823.414062 L 582.082031 1024 L 324.390625 1024 Z M 324.390625 823.414062"/></clipPath><clipPath id="8d2093207d"><path d="M 581.332031 835.882812 L 839 835.882812 L 839 1024 L 581.332031 1024 Z M 581.332031 835.882812"/></clipPath><clipPath id="2cdee9d2a7"><path d="M 838.457031 835.882812 L 1096.148438 835.882812 L 1096.148438 1024 L 838.457031 1024 Z M 838.457031 835.882812"/></clipPath><clipPath id="2235ac194e"><path d="M 1086.886719 811.847656 L 1253.765625 811.847656 L 1253.765625 1024 L 1086.886719 1024 Z M 1086.886719 811.847656"/></clipPath><clipPath id="9e5a3f17e5"><path d="M 1241.46875 818.742188 L 1289.894531 818.742188 L 1289.894531 1024 L 1241.46875 1024 Z M 1241.46875 818.742188"/></clipPath><clipPath id="641b6b98db"><path d="M 1273.882812 835.882812 L 1337.25 835.882812 L 1337.25 1024 L 1273.882812 1024 Z M 1273.882812 835.882812"/></clipPath><clipPath id="eda8e571b7"><path d="M 1325.457031 864.695312 L 1384.605469 864.695312 L 1384.605469 1024 L 1325.457031 1024 Z M 1325.457031 864.695312"/></clipPath><clipPath id="d43483e262"><path d="M 1362.734375 888.320312 L 1439.648438 888.320312 L 1439.648438 1024 L 1362.734375 1024 Z M 1362.734375 888.320312"/></clipPath></defs><g id="3bc8afa402"><g clip-path="url(#0a41eb0854)" clip-rule="nonzero"><path d="M 927.09375 845.15625 C 1089.714844 811.6875 1165.976562 895.101562 1223.433594 856.890625 C 1272.5625 807.269531 1024.9375 856.667969 1144.816406 817.488281 C 1144.816406 817.488281 1216.367188 796.371094 1293.792969 839.929688 L 1393.503906 899.808594 C 1393.503906 899.808594 1443.21875 919.25 1448.378906 888.8125 C 1448.378906 888.8125 1444.023438 857.761719 1359.730469 837.675781 C 1359.730469 837.675781 1271.304688 807.914062 1183.816406 800.851562 C 1165.753906 799.402344 1137.65625 788.535156 1207.949219 789.277344 C 1235.59375 789.566406 1255.207031 796.242188 1266.082031 784.664062 C 1266.082031 784.664062 1286.953125 755.355469 1206.238281 768.125 C 1206.238281 768.125 1043.101562 806.460938 1012.679688 806.65625 C 924.773438 812.976562 940.0625 757.257812 1044.425781 787.246094 C 1107.910156 805.496094 1082.972656 730.65625 964.324219 762.320312 C 960.710938 763.289062 954.257812 765.09375 945.355469 767.480469 C 745.3125 799.820312 763.539062 755.066406 644.210938 769.027344 C 634.921875 770.125 471.847656 796.242188 517.6875 769.253906 C 481.300781 755.742188 444.589844 805.429688 349.035156 773.152344 C 329.066406 766.414062 336.90625 734.429688 376.101562 721.691406 C 376.101562 721.691406 327.164062 717.371094 245.515625 751.710938 C 107.863281 809.589844 -7.207031 679.355469 145.152344 609.742188 C -101.761719 603.324219 -142.28125 1065.285156 927.128906 845.121094 Z M 927.09375 845.15625" style="stroke:none;fill-rule:evenodd;fill:#ffffff;fill-opacity:1;"/></g><g clip-path="url(#ce56d594e1)" clip-rule="nonzero"><path d="M 0.351562 730.390625 L 68.199219 730.390625 L 68.199219 1025.367188 L 0.351562 1025.367188 Z M 0.351562 730.390625" style="stroke:none;fill-rule:nonzero;fill:#ffffff;fill-opacity:1;"/></g><g clip-path="url(#d184a27703)" clip-rule="nonzero"><path d="M 67.449219 778.820312 L 325.601562 778.820312 L 325.601562 1025.414062 L 67.449219 1025.414062 Z M 67.449219 778.820312" style="stroke:none;fill-rule:nonzero;fill:#ffffff;fill-opacity:1;"/></g><g clip-path="url(#c803ebec99)" clip-rule="nonzero"><path d="M 324.390625 823.414062 L 582.414062 823.414062 L 582.414062 1025.414062 L 324.390625 1025.414062 Z M 324.390625 823.414062" style="stroke:none;fill-rule:nonzero;fill:#ffffff;fill-opacity:1;"/></g><g clip-path="url(#8d2093207d)" clip-rule="nonzero"><path d="M 581.332031 835.882812 L 838.976562 835.882812 L 838.976562 1025.414062 L 581.332031 1025.414062 Z M 581.332031 835.882812" style="stroke:none;fill-rule:nonzero;fill:#ffffff;fill-opacity:1;"/></g><g clip-path="url(#2cdee9d2a7)" clip-rule="nonzero"><path d="M 838.457031 835.882812 L 1096.101562 835.882812 L 1096.101562 1025.414062 L 838.457031 1025.414062 Z M 838.457031 835.882812" style="stroke:none;fill-rule:nonzero;fill:#ffffff;fill-opacity:1;"/></g><g clip-path="url(#2235ac194e)" clip-rule="nonzero"><path d="M 1086.886719 811.847656 L 1253.765625 811.847656 L 1253.765625 1025.664062 L 1086.886719 1025.664062 Z M 1086.886719 811.847656" style="stroke:none;fill-rule:nonzero;fill:#ffffff;fill-opacity:1;"/></g><g clip-path="url(#9e5a3f17e5)" clip-rule="nonzero"><path d="M 1241.46875 818.742188 L 1289.894531 818.742188 L 1289.894531 1025.492188 L 1241.46875 1025.492188 Z M 1241.46875 818.742188" style="stroke:none;fill-rule:nonzero;fill:#ffffff;fill-opacity:1;"/></g><g clip-path="url(#641b6b98db)" clip-rule="nonzero"><path d="M 1273.882812 835.882812 L 1337.25 835.882812 L 1337.25 1025.480469 L 1273.882812 1025.480469 Z M 1273.882812 835.882812" style="stroke:none;fill-rule:nonzero;fill:#ffffff;fill-opacity:1;"/></g><g clip-path="url(#eda8e571b7)" clip-rule="nonzero"><path d="M 1325.457031 864.695312 L 1384.605469 864.695312 L 1384.605469 1025.5 L 1325.457031 1025.5 Z M 1325.457031 864.695312" style="stroke:none;fill-rule:nonzero;fill:#ffffff;fill-opacity:1;"/></g><g clip-path="url(#d43483e262)" clip-rule="nonzero"><path d="M 1362.734375 888.320312 L 1439.648438 888.320312 L 1439.648438 1025.320312 L 1362.734375 1025.320312 Z M 1362.734375 888.320312" style="stroke:none;fill-rule:nonzero;fill:#ffffff;fill-opacity:1;"/></g></g></svg>